# xmcd
#
# Track frame offsets:
# 150
# 19913
# 35188
# 48801
# 71083
# 91086
# 107331
# 124743
# 145393
# 162996
# 182421
# 204966
# 224248
# 246548
# 258063
# 283458
# 299145
#
# Disc length: 4219 seconds
#
# Revision: 0
# Processed by: cddbd v1.4PL0 Copyright (c) Steve Scherf et al.
# Submitted via: MacMP3 Pro 5.0 (http://mp3.act2.co.jp/)
#
DISCID=0f107911
DTITLE=ÍF≈X - GUNDAM BEST
DYEAR=1900
DGENRE=
TTITLE0=«fl«∆«À«?«¢
TTITLE1=…r…M…j…Ï…O
TTITLE2=‚i‚Ï«...…A…ƒ…Á
TTITLE3=Z≈EÁË«?‚z«∂«?
TTITLE4=…T…C…Â…Ï…g…Ó…H…C…X
TTITLE5=‡ÕÍ¡Ò˙ÓN„?‚’
TTITLE6=«¢«¨«©„€«...Ï’«¢«?
TTITLE7=STAND UP TO THE VICTORY
TTITLE8=Trust You Forever
TTITLE9=JUST COMMUNICATION
TTITLE10=DREAMS
TTITLE11=ÛÌ«√Ì‹«?„P«¢«?
TTITLE12=Âø«À«ª«¥Û<sum>ÚH
TTITLE13=AURA
TTITLE14=ÂÈ«√Òˆ
TTITLE15=ÔÛ«...«-«?«À«?
TTITLE16=‡£≈EÍÃÈm
EXTD=
EXTT0=
EXTT1=
EXTT2=
EXTT3=
EXTT4=
EXTT5=
EXTT6=
EXTT7=
EXTT8=
EXTT9=
EXTT10=
EXTT11=
EXTT12=
EXTT13=
EXTT14=
EXTT15=
EXTT16=
PLAYORDER=
